<svg width="1578" height="1117" viewBox="0 0 1578 1117" fill="none" xmlns="http://www.w3.org/2000/svg">
<g clip-path="url(#clip0_3_16)">
<rect width="1578" height="1117" fill="#F8F8FF"/>
<path d="M1477 -0.5C1477 7.44498 1475.36 15.3121 1472.17 22.6524C1468.98 29.9925 1464.3 36.662 1458.4 42.28C1452.5 47.8979 1445.5 52.3543 1437.8 55.3947C1430.1 58.4351 1421.84 60 1413.5 60C1405.16 60 1396.9 58.4351 1389.2 55.3947C1381.5 52.3543 1374.5 47.8979 1368.6 42.28C1362.7 36.662 1358.02 29.9925 1354.83 22.6523C1351.64 15.3121 1350 7.44497 1350 -0.500004L1413.5 -0.5H1477Z" fill="#3F51B5"/>
<path d="M1477 1118.5C1477 1110.56 1475.36 1102.69 1472.17 1095.35C1468.98 1088.01 1464.3 1081.34 1458.4 1075.72C1452.5 1070.1 1445.5 1065.65 1437.8 1062.61C1430.1 1059.56 1421.84 1058 1413.5 1058C1405.16 1058 1396.9 1059.56 1389.2 1062.61C1381.5 1065.65 1374.5 1070.1 1368.6 1075.72C1362.7 1081.34 1358.02 1088.01 1354.83 1095.35C1351.64 1102.69 1350 1110.56 1350 1118.5L1413.5 1118.5H1477Z" fill="#1E1E1E"/>
<path d="M1330 1055.5C1330 1047.56 1328.36 1039.69 1325.17 1032.35C1321.98 1025.01 1317.3 1018.34 1311.4 1012.72C1305.5 1007.1 1298.5 1002.65 1290.8 999.605C1283.1 996.565 1274.84 995 1266.5 995C1258.16 995 1249.9 996.565 1242.2 999.605C1234.5 1002.65 1227.5 1007.1 1221.6 1012.72C1215.7 1018.34 1211.02 1025.01 1207.83 1032.35C1204.64 1039.69 1203 1047.56 1203 1055.5L1246.5 1055.5C1246.5 1053 1247.02 1050.52 1248.02 1048.21C1249.03 1045.9 1250.5 1043.79 1252.36 1042.02C1254.21 1040.26 1256.42 1038.85 1258.85 1037.89C1261.27 1036.94 1263.87 1036.44 1266.5 1036.44C1269.13 1036.44 1271.73 1036.94 1274.15 1037.89C1276.58 1038.85 1278.79 1040.26 1280.64 1042.02C1282.5 1043.79 1283.97 1045.9 1284.98 1048.21C1285.98 1050.52 1286.5 1053 1286.5 1055.5H1330Z" fill="#D88F08"/>
<path d="M1578.5 7C1572.79 7 1567.13 8.08636 1561.85 10.1971C1556.58 12.3078 1551.78 15.4015 1547.74 19.3015C1543.7 23.2016 1540.5 27.8316 1538.31 32.9273C1536.13 38.023 1535 43.4845 1535 49C1535 54.5155 1536.13 59.977 1538.31 65.0727C1540.5 70.1684 1543.7 74.7984 1547.74 78.6985C1551.78 82.5985 1556.58 85.6922 1561.85 87.8029C1567.13 89.9136 1572.79 91 1578.5 91L1578.5 49V7Z" fill="#1E1E1E"/>
<path d="M1578.5 1111C1572.79 1111 1567.13 1109.91 1561.85 1107.8C1556.58 1105.69 1551.78 1102.6 1547.74 1098.7C1543.7 1094.8 1540.5 1090.17 1538.31 1085.07C1536.13 1079.98 1535 1074.52 1535 1069C1535 1063.48 1536.13 1058.02 1538.31 1052.93C1540.5 1047.83 1543.7 1043.2 1547.74 1039.3C1551.78 1035.4 1556.58 1032.31 1561.85 1030.2C1567.13 1028.09 1572.79 1027 1578.5 1027L1578.5 1069V1111Z" fill="#3F51B5"/>
<path d="M1440 165.5C1440 157.555 1438.36 149.688 1435.17 142.348C1431.98 135.007 1427.3 128.338 1421.4 122.72C1415.5 117.102 1408.5 112.646 1400.8 109.605C1393.1 106.565 1384.84 105 1376.5 105L1376.5 165.5H1440Z" fill="#1E1E1E"/>
<path d="M1440 952.5C1440 960.445 1438.36 968.312 1435.17 975.652C1431.98 982.993 1427.3 989.662 1421.4 995.28C1415.5 1000.9 1408.5 1005.35 1400.8 1008.39C1393.1 1011.44 1384.84 1013 1376.5 1013L1376.5 952.5H1440Z" fill="#3F51B5"/>
<circle cx="22.5" cy="22.5" r="22.5" transform="matrix(1 0 0 -1 1481 136)" fill="#D88F08"/>
<circle cx="1503.5" cy="1004.5" r="22.5" fill="#D88F08"/>
<circle cx="1268" cy="1109" r="15" fill="#1E1E1E"/>
<rect x="1519" y="194" width="138" height="64" rx="32" fill="#D88F08"/>
<rect width="138" height="64" rx="32" transform="matrix(1 0 0 -1 1519 924)" fill="#1E1E1E"/>
</g>
<defs>
<clipPath id="clip0_3_16">
<rect width="1578" height="1117" fill="white"/>
</clipPath>
</defs>
</svg>
